<svg xmlns="http://www.w3.org/2000/svg" viewBox="0 0 49.83 50.4" style="fill: #ff69b4">
<title>favicon</title>
<g id="Layer_2" data-name="Layer 2">
<g id="Layer_1-2" data-name="Layer 1">
<path d="M28.73,50.4a14.73,14.73,0,0,1-9-2.59A7.31,7.31,0,0,1,14,50.4c-3.46,0-5.9-1.36-5.9-3.81S10.8,42,14.11,42c1.52,0,3,.79,4.76,1.87,1.58-3.24,2.3-8.28,2.73-13.61-3.67,3.82-8.35,7.13-12.74,7.13C3.67,37.37,0,34.06,0,29.59a1.44,1.44,0,1,1,2.88,0c0,3.46,3.24,4.9,6,4.9,4.89,0,9.57-4.18,13-9.36C22.32,11.45,21.6,0,26.28,0c2,0,3.24,1.73,3.24,5.54,0,8.21-1.58,14.91-4.82,20.53-.22,7.49-1.3,15.19-3.39,19.29a13.72,13.72,0,0,0,7.56,2.38c7.93,0,13.4-8.86,18.29-18.72a1.52,1.52,0,0,1,1.3-.79,1.45,1.45,0,0,1,1.37,1.51c0,.21,0,.5-.65,1.73C44.57,40.32,38,50.4,28.73,50.4ZM11,46.59s0,.93,3,.93a4.24,4.24,0,0,0,3.17-1.29,6.87,6.87,0,0,0-3.1-1.37C12.24,44.86,11,46,11,46.59ZM25.35,7.49c-.29,2.88-.44,6.84-.44,10.94A42.53,42.53,0,0,0,26.64,5.54,6,6,0,0,0,26.28,3C26.07,3.38,25.63,4.46,25.35,7.49Z"/>
</g>
</g>
</svg>